<svg width="61" height="89" viewBox="0 0 61 89" fill="none" xmlns="http://www.w3.org/2000/svg">
<path fill-rule="evenodd" clip-rule="evenodd" d="M35.6376 42.7383L31.2109 45.4785L41.4223 64.4576L45.8489 61.7173L35.6376 42.7383Z" fill="url(#paint0_linear_6_20)"/>
<path d="M39.4779 52.2436L36.9 53.8412C35.2932 54.837 34.7423 57.0429 35.6701 58.7677L50.2518 85.8781C51.1795 87.6029 53.2346 88.1938 54.8414 87.198L57.4192 85.6004C59.0261 84.6046 59.5764 82.3991 58.6487 80.6743L44.067 53.5638C43.1392 51.839 41.0847 51.2478 39.4779 52.2436Z" fill="url(#paint1_linear_6_20)"/>
<path d="M28.9072 0.828746C23.0227 -0.849793 16.7585 0.0429477 11.4858 3.31143C6.21315 6.57991 2.36167 11.9578 0.774937 18.2677C-0.792058 24.585 0.0374267 31.3114 3.08159 36.9735C6.12575 42.6356 11.1366 46.7718 17.0162 48.4761C22.9014 50.1563 29.1669 49.2643 34.4408 45.9957C39.7146 42.7271 43.5668 37.3482 45.1535 31.0371C46.7203 24.719 45.8902 17.9919 42.845 12.3296C39.7998 6.66736 34.7878 2.53185 28.9072 0.828746ZM27.59 6.12293C29.8595 6.77029 31.9876 7.89238 33.8521 9.42481C35.7166 10.9572 37.2807 12.8698 38.4548 15.0528C39.6289 17.2358 40.3898 19.6462 40.6938 22.1456C40.9979 24.6451 40.839 27.1844 40.2264 29.6178C39.6233 32.0539 38.578 34.3383 37.1503 36.3396C35.7227 38.341 33.9409 40.0199 31.9072 41.2802C29.8736 42.5405 27.6281 43.3573 25.2995 43.6836C22.971 44.01 20.6054 43.8394 18.3385 43.1819C16.0689 42.5345 13.9408 41.4124 12.0763 39.88C10.2119 38.3476 8.64774 36.435 7.47364 34.252C6.29953 32.069 5.53865 29.6586 5.23461 27.1592C4.93057 24.6597 5.08949 22.1204 5.70205 19.687C6.30513 17.2509 7.35047 14.9666 8.7781 12.9652C10.2057 10.9638 11.9875 9.28488 14.0212 8.02458C16.0549 6.76428 18.3004 5.94754 20.6289 5.62117C22.9574 5.29481 25.323 5.46541 27.59 6.12293Z" fill="url(#paint2_linear_6_20)"/>
<defs>
<linearGradient id="paint0_linear_6_20" x1="33.5749" y1="54.7954" x2="44.0634" y2="49.9099" gradientUnits="userSpaceOnUse">
<stop stop-color="#CFCFCF"/>
<stop offset="1" stop-color="#878689"/>
</linearGradient>
<linearGradient id="paint1_linear_6_20" x1="42.9609" y1="72.3229" x2="51.6446" y2="67.6523" gradientUnits="userSpaceOnUse">
<stop stop-color="#9575D4"/>
<stop offset="1" stop-color="#4B27E0"/>
</linearGradient>
<linearGradient id="paint2_linear_6_20" x1="-0.0113215" y1="24.6524" x2="45.9398" y2="24.6524" gradientUnits="userSpaceOnUse">
<stop stop-color="#DCDCDC"/>
<stop offset="1" stop-color="#615D82"/>
</linearGradient>
</defs>
</svg>
