<svg width="15" height="19" viewBox="0 0 15 19" fill="none" xmlns="http://www.w3.org/2000/svg">
<path d="M9.13594 8.59766L5.96419 9.80193L3.20481 11.218L2.43284 11.455C2.23623 11.6725 2.03008 11.8927 1.80712 12.1157C1.56259 12.361 1.33484 12.5841 1.1598 12.7457C0.965627 12.9241 0.677936 13.2586 0.531709 13.4705C0.313533 13.7882 0.140928 14.1255 0.0666034 14.3848C-0.0652636 14.8532 -0.000502421 15.327 0.253614 15.7647C0.579655 16.3222 1.22936 16.8909 1.98691 17.2784C2.37292 17.4763 3.0226 17.73 3.51165 17.8721C4.32434 18.1119 5.89705 18.3712 6.76249 18.4102C6.93747 18.4186 7.17244 18.4186 7.182 18.4102C7.20121 18.3962 7.33546 18.098 7.49132 17.7272C8.02354 16.4644 8.40711 15.2797 8.61567 14.2678C8.74033 13.6545 8.83861 12.8377 8.90332 11.8704C8.92013 11.6 8.9273 10.694 8.91291 10.3874C8.89132 9.88562 8.85296 9.47865 8.79308 9.08001C8.78348 9.02145 8.78105 8.96848 8.78587 8.9657C8.79543 8.95735 8.8242 8.9462 9.21498 8.81515L9.1359 8.59775V8.59768H9.13594V8.59766ZM8.41193 9.0911C8.4407 9.0911 8.51739 9.94689 8.53656 10.4877C8.54138 10.602 8.53895 10.6773 8.53417 10.6773C8.51501 10.6773 8.12901 10.4125 7.85336 10.2118C7.6136 10.0361 7.15811 9.68488 7.0862 9.61798C7.06218 9.59848 7.06456 9.5957 7.26118 9.51762C7.59439 9.38658 8.38557 9.0911 8.41193 9.0911ZM6.79609 9.70997C6.81768 9.70997 6.87278 9.74617 7.00465 9.84097C7.49849 10.2006 8.16979 10.6355 8.45747 10.7804C8.54616 10.825 8.55572 10.8083 8.35198 10.97C7.91565 11.3157 7.37141 11.6557 6.70494 11.9986C6.58749 12.0599 6.4892 12.1073 6.48682 12.1073C6.48204 12.1073 6.49638 12.0377 6.51554 11.954C6.67617 11.2599 6.76729 10.5574 6.77211 9.99428C6.7745 9.7155 6.7745 9.7155 6.79609 9.70718C6.79127 9.70997 6.79366 9.70997 6.79609 9.70997ZM6.46286 9.8577C6.4772 9.8744 6.46764 10.4989 6.44844 10.6689C6.4053 11.0759 6.33817 11.455 6.22793 11.8816C6.20155 11.9846 6.17754 12.0711 6.17279 12.0766C6.16315 12.0906 5.83471 11.717 5.72683 11.5721C5.53982 11.3212 5.39362 11.0703 5.28573 10.825C5.23059 10.6995 5.1443 10.4543 5.15148 10.4459C5.18983 10.4152 6.45326 9.84657 6.46286 9.8577ZM4.89494 10.5741C4.89733 10.5741 4.89972 10.5741 4.90215 10.5769C4.90692 10.5825 4.92374 10.6271 4.93812 10.6772C5.01481 10.9198 5.18739 11.2766 5.33608 11.5052C5.4991 11.7561 5.71249 12.0237 5.88984 12.1993C5.94741 12.255 6.00012 12.308 6.0073 12.3164C6.02171 12.3331 6.0265 12.3303 5.63571 12.5032C5.18265 12.7039 4.68876 12.9046 4.12296 13.1164C3.98781 13.1671 3.85277 13.2182 3.71786 13.2697C3.69625 13.2781 3.70346 13.2642 3.76579 13.1499C4.04627 12.6397 4.47299 11.639 4.71275 10.9309C4.75351 10.8083 4.79426 10.6856 4.80147 10.6577C4.81106 10.6187 4.82302 10.6048 4.85418 10.5852C4.87096 10.5797 4.88776 10.5741 4.89494 10.5741ZM4.41551 10.8055C4.42268 10.8111 4.30041 11.1093 4.18054 11.3825C3.94798 11.9094 3.69386 12.4279 3.35344 13.0579C3.29591 13.1666 3.24079 13.267 3.23358 13.2781C3.22161 13.2977 3.21679 13.2921 3.17843 13.2057C3.09692 13.0189 3.02977 12.7791 2.99382 12.5589C2.95785 12.3414 2.96506 11.9624 3.00583 11.7282C3.03696 11.5554 3.03459 11.5582 3.10651 11.5163C3.41337 11.3352 4.40591 10.7943 4.41551 10.8055ZM8.55098 11.0006V11.1177C8.55098 11.7394 8.49344 12.5924 8.4095 13.214C8.39512 13.3227 8.38309 13.4119 8.38074 13.4147C8.38074 13.4147 8.31122 13.3925 8.22971 13.3645C7.87012 13.2335 7.47934 13.0412 7.12691 12.8154C6.89433 12.6677 6.55632 12.4251 6.56593 12.4139C6.56828 12.4112 6.669 12.3499 6.78645 12.2774C7.2564 11.993 7.70706 11.6864 8.09784 11.3826C8.24409 11.2682 8.46461 11.0843 8.51261 11.0341L8.55098 11.0006ZM2.60544 11.8257C2.61503 11.8257 2.61263 11.848 2.59824 11.9484C2.58865 12.0209 2.57668 12.1547 2.57191 12.2467C2.55269 12.6537 2.61026 12.9547 2.78287 13.3673C2.83081 13.4816 2.8692 13.5764 2.86676 13.5791C2.84997 13.5959 1.26294 14.1367 0.764245 14.2956C0.615618 14.343 0.486183 14.3848 0.476543 14.3875C0.459794 14.3932 0.457384 14.3904 0.46457 14.3429C0.519703 13.9332 0.788224 13.398 1.1622 12.9463C1.41154 12.6453 1.61053 12.4697 1.95096 12.2439C2.19549 12.0822 2.57188 11.8397 2.60064 11.8285C2.60067 11.8257 2.60305 11.8257 2.60544 11.8257ZM6.34538 12.6035C6.34776 12.6007 6.4053 12.637 6.47481 12.6843C6.98786 13.03 7.70228 13.3506 8.31118 13.5151L8.36635 13.529L8.28962 13.5791C7.97079 13.7855 6.92312 14.2928 5.85152 14.7583C5.69566 14.8252 5.54225 14.8922 5.51344 14.9061C5.48467 14.92 5.45829 14.9284 5.45829 14.9256C5.45829 14.9228 5.50147 14.8252 5.55657 14.7054C5.85625 14.0531 6.15834 13.2586 6.31177 12.7066C6.33099 12.6537 6.34294 12.6063 6.34538 12.6035ZM5.96419 12.7485C5.96662 12.7513 5.94742 12.8098 5.92343 12.8767C5.71487 13.4649 5.44153 14.1061 5.09153 14.8253C5.00285 15.0093 4.92851 15.157 4.92608 15.157C4.92373 15.157 4.85178 15.1068 4.76548 15.0455C4.25721 14.6831 3.80652 14.2371 3.51166 13.805L3.46849 13.7437L3.68663 13.674C4.4682 13.4259 5.13224 13.1583 5.79155 12.8293C5.88507 12.7847 5.9618 12.7485 5.96419 12.7485ZM8.33281 13.7102C8.3352 13.7743 8.21293 14.3486 8.11223 14.7639C8.02833 15.1124 7.95637 15.3856 7.82455 15.8678C7.76702 16.0797 7.7167 16.2553 7.71427 16.2553C7.71188 16.2553 7.6975 16.2525 7.68312 16.247C6.9711 16.0964 6.33339 15.8873 5.73404 15.6086C5.5662 15.5305 5.32648 15.405 5.3121 15.3911C5.30732 15.3855 5.45117 15.3075 5.63336 15.2155C6.72417 14.6608 7.85573 14.0307 8.24409 13.7604C8.28963 13.7269 8.3256 13.7102 8.33281 13.7102ZM2.86438 13.9277C2.86917 13.9332 2.5647 14.4434 2.13795 15.1375C1.98932 15.38 1.81672 15.6643 1.752 15.7703C1.68726 15.8762 1.58898 16.0435 1.53383 16.1438L1.4331 16.325L1.32521 16.2191C1.19814 16.0964 0.977611 15.8344 0.879319 15.6894C0.673127 15.3912 0.534108 15.0762 0.478964 14.7891C0.452586 14.6552 0.452586 14.5883 0.476532 14.58C0.512483 14.5688 1.15259 14.3932 1.75198 14.2315C2.08521 14.1423 2.47116 14.0364 2.61022 13.9974C2.74928 13.9583 2.86199 13.9277 2.86438 13.9277ZM3.17123 14.0642L3.24792 14.1646C3.59318 14.6134 3.94559 14.9452 4.37232 15.235C4.44906 15.2853 4.50658 15.3298 4.50176 15.3327C4.48502 15.3466 3.02018 15.9514 2.34173 16.2246C1.96057 16.3807 1.64649 16.5062 1.64412 16.5062C1.64173 16.5062 1.62014 16.4895 1.59613 16.47L1.553 16.4337L1.62252 16.3166C1.84786 15.9375 2.13079 15.5222 2.74691 14.658L3.17123 14.0642ZM5.08437 15.656C5.08672 15.6532 5.19222 15.6978 5.32166 15.7536C5.63336 15.8901 5.88025 15.9765 6.21112 16.0741C6.61868 16.194 7.20843 16.3111 7.55607 16.3445C7.60881 16.3501 7.63758 16.3557 7.62798 16.3641C7.61117 16.3752 7.25879 16.5118 6.99987 16.6066C6.58749 16.7571 5.32888 17.1892 4.30281 17.5321C4.11341 17.5962 3.95038 17.6492 3.94079 17.6519C3.91685 17.6575 3.8377 17.6324 3.8377 17.6212C3.8377 17.6157 3.89523 17.5293 3.96477 17.4345C4.30997 16.955 4.65283 16.4198 4.93812 15.9125C5.01721 15.773 5.08437 15.6587 5.08437 15.656ZM4.66239 15.6699C4.66478 15.6727 4.49458 15.9905 4.19734 16.5368C4.07025 16.7682 3.9288 17.0303 3.87844 17.1223C3.83049 17.2115 3.75858 17.3509 3.71784 17.4289L3.6483 17.5711L3.61235 17.5599C3.52602 17.532 2.9195 17.2839 2.75887 17.2087C2.55987 17.1167 2.3537 17.0052 2.20025 16.9104C2.00849 16.7905 1.76877 16.6121 1.78793 16.6066C1.79271 16.6038 2.12117 16.5006 2.51671 16.3752C3.56678 16.0434 4.14933 15.8511 4.53055 15.7117C4.60008 15.6866 4.66 15.6671 4.66239 15.6699ZM7.64714 16.4839H7.64953C7.65913 16.5118 7.27078 17.7662 7.12927 18.162C7.09815 18.2512 7.0862 18.2736 7.06938 18.2707C7.02862 18.268 6.46526 18.176 6.12239 18.1174C5.52547 18.0115 4.52335 17.808 4.27164 17.7411L4.21411 17.7272L4.57127 17.6324C5.33846 17.4316 5.70765 17.3229 6.08163 17.1891C6.55393 17.0219 7.02145 16.8128 7.49371 16.5564C7.56802 16.5173 7.63036 16.4867 7.64714 16.4839Z" fill="url(#paint0_linear_5_36)"/>
<path d="M5.86417 0.000142779C5.81143 -0.0081743 4.96033 0.348637 4.41135 0.607855C3.67054 0.959139 3.0952 1.29367 2.74037 1.58352C2.60854 1.69229 2.44308 1.88461 2.41675 1.95986C2.40716 1.98774 2.40234 2.02119 2.40234 2.05464L2.72361 2.40868L3.48836 2.69301L5.30798 3.07214L7.38889 3.4875L7.41048 3.27843C7.40331 3.27843 7.39849 3.27566 7.39136 3.27566L7.11798 3.22546L7.06288 3.11118C6.77998 2.53134 6.46832 1.81212 6.28613 1.32707C6.1447 0.950732 6.01043 0.515904 5.9361 0.203673C5.89534 0.0141159 5.89056 0.00297081 5.86423 0.00019417V0.000129833H5.86417V0.000142779ZM5.82577 0.142356H5.82823C5.83059 0.145107 5.84018 0.223213 5.84979 0.31515C5.89051 0.705474 5.96489 1.08175 6.08234 1.48876C6.17102 1.79541 6.17102 1.7787 6.06795 1.74244C5.82342 1.66441 4.72783 1.44418 3.93429 1.31595C3.80722 1.29642 3.69933 1.27692 3.69933 1.27415C3.68975 1.263 4.27229 0.908941 4.52882 0.769594C4.85726 0.593933 5.75867 0.156278 5.82577 0.142356ZM3.5147 1.3912L3.60824 1.4274C4.11645 1.62814 5.39423 1.91249 6.0991 1.97939C6.17819 1.98776 6.24535 1.99614 6.2477 1.99614C6.25009 1.99891 6.18301 2.04073 6.09668 2.0881C5.75629 2.28603 5.38228 2.52856 5.12335 2.71534C5.04666 2.77107 4.9771 2.8157 4.96754 2.8157C4.95794 2.8157 4.90762 2.80454 4.85487 2.79617L4.75898 2.77942L4.51927 2.50622C4.09732 2.02956 3.76647 1.6616 3.6394 1.52219L3.5147 1.3912ZM3.41884 1.4776L3.75687 1.96824C3.94144 2.23864 4.12844 2.50345 4.16924 2.56197C4.20995 2.62055 4.24354 2.66796 4.24115 2.67073C4.23156 2.67909 3.75211 2.57035 3.49795 2.50348C3.23664 2.43377 3.12876 2.40032 2.96814 2.3418L2.83627 2.29161V2.25255C2.83866 2.06577 3.04246 1.78703 3.38768 1.50272L3.41884 1.4776ZM6.2909 2.14664C6.3005 2.14664 6.31245 2.17172 6.34122 2.24699C6.42273 2.45605 6.6769 3.01918 6.73917 3.12788C6.75841 3.16415 6.79192 3.16693 6.45393 3.10281C5.64123 2.94945 5.37989 2.89933 5.37989 2.89375C5.37989 2.89098 5.40387 2.87145 5.43503 2.85192C5.68677 2.69027 5.94087 2.48397 6.16625 2.26374C6.22139 2.21076 6.27174 2.16059 6.2813 2.15221C6.28369 2.14664 6.28851 2.14387 6.2909 2.14664Z" fill="url(#paint1_linear_5_36)"/>
<path d="M2.4353 1.92188C2.4353 1.92188 2.38259 2.01948 2.43293 2.16445C2.46412 2.25362 2.55521 2.36232 2.65828 2.47385C2.65828 2.47385 3.72511 3.68367 3.85457 3.85653C4.44431 4.64819 4.70084 5.42874 4.72482 6.50478C4.7392 7.19611 4.6265 7.80381 4.34603 8.50909C3.84737 9.77468 2.7949 11.1713 1.17188 12.7212L1.40925 12.6292C1.56268 12.4954 1.77126 12.3533 2.26031 12.041C3.38946 11.3218 4.66008 10.6611 6.2184 9.98095C8.46229 8.99968 12.1519 7.85115 14.252 7.47765L14.4702 7.4386L14.4366 7.37727C14.2448 7.03159 14.1129 6.81697 13.9547 6.58838C13.4944 5.92492 12.9359 5.38693 12.2526 4.9409C11.3128 4.33043 10.0973 3.85375 8.55822 3.49972C8.26814 3.43278 7.63043 3.30457 7.1126 3.21258C6.01458 3.0147 5.30496 2.87808 4.52343 2.72197C4.24296 2.6662 3.82338 2.58259 3.54528 2.51291C3.40144 2.47664 3.12577 2.40139 2.91 2.31498C2.7374 2.23688 2.48805 2.15883 2.4353 1.92188ZM3.05387 2.61881C3.05623 2.61606 3.09458 2.63273 3.14496 2.65226C3.23606 2.68846 3.35352 2.73029 3.4926 2.77492C3.59782 2.80857 3.70331 2.84109 3.80905 2.87248C3.95289 2.91427 4.07274 2.95331 4.07513 2.95331C4.09194 2.97283 4.33409 3.87317 4.4156 4.21885C4.44672 4.34991 4.47074 4.46139 4.46834 4.46139C4.46587 4.46421 4.43954 4.41679 4.40839 4.35268C4.12788 3.77842 3.68437 3.19581 3.17132 2.72747C3.10422 2.67177 3.05387 2.62159 3.05387 2.61881ZM4.23337 2.99793C4.24537 2.99793 4.29811 3.0063 4.36281 3.02301C4.77037 3.12893 5.50159 3.29062 5.96906 3.38262C6.04818 3.39654 6.11053 3.41331 6.11053 3.41885C6.11053 3.42445 6.08173 3.44393 6.04576 3.46625C5.96668 3.51362 5.6478 3.73383 5.54235 3.81747C5.27621 4.02376 5.0365 4.24676 4.86388 4.44746C4.79436 4.52832 4.7344 4.59522 4.7344 4.59522C4.7344 4.59522 4.72006 4.54785 4.70802 4.48927C4.62176 4.10178 4.44193 3.52752 4.27891 3.12334C4.25253 3.05924 4.23094 3.00069 4.23094 2.99514C4.23094 3.0007 4.23094 2.99793 4.23337 2.99793ZM6.30949 3.45789C6.32388 3.46344 6.34785 3.55823 6.39579 3.76729C6.48451 4.17152 6.52527 4.62311 6.51089 5.04404C6.50607 5.16112 6.50129 5.26982 6.49647 5.2838L6.4893 5.31164L6.36464 5.26427C6.10811 5.16949 5.69099 5.02729 5.33379 4.91024C5.12998 4.84612 4.9646 4.78758 4.9646 4.78201C4.9646 4.76526 5.26189 4.41961 5.38893 4.2886C5.63102 4.04047 6.2879 3.4495 6.30949 3.45789ZM6.47491 3.48573C6.48212 3.47741 7.46744 3.67529 7.91575 3.77566C8.24901 3.85091 8.73327 3.968 8.76202 3.98196C8.77641 3.98752 8.72605 4.02097 8.56542 4.10459C7.93252 4.43634 7.46261 4.73458 6.99517 5.09701C6.8729 5.19178 6.7698 5.26983 6.76741 5.26983C6.76502 5.26983 6.76263 5.18901 6.76263 5.09143C6.76263 4.56179 6.67152 4.02656 6.50367 3.57497C6.4869 3.53036 6.47251 3.48856 6.47491 3.48573ZM9.02332 4.07116C9.03053 4.07952 8.99935 4.30534 8.97058 4.43912C8.88428 4.85449 8.65175 5.47059 8.36649 6.05038C8.3161 6.15353 8.27056 6.23716 8.26573 6.23994C8.26099 6.24272 8.19625 6.20089 8.12191 6.15072C7.84383 5.96116 7.52738 5.78276 7.18214 5.61548C7.08628 5.56811 7.00235 5.52906 6.99995 5.52353C6.98313 5.50678 7.75511 4.91301 8.16267 4.62868C8.48633 4.40011 9.01373 4.05999 9.02332 4.07116ZM9.20551 4.1046C9.22711 4.1046 9.66343 4.244 9.89115 4.32205C10.4546 4.5172 11.1018 4.79316 11.5238 5.01616L11.6988 5.10819L11.5765 5.14161C10.5457 5.41757 9.66343 5.7354 8.81235 6.13681C8.74282 6.17026 8.68048 6.19814 8.67574 6.19814C8.67092 6.19814 8.69489 6.13403 8.72606 6.05595C8.98259 5.42317 9.148 4.7625 9.18872 4.19936C9.19116 4.14639 9.19831 4.1046 9.20551 4.1046ZM4.86149 5.26427C4.86866 5.25589 5.20191 5.34791 5.38171 5.4064C5.65501 5.49563 6.23516 5.7214 6.23516 5.73815C6.23516 5.74093 6.17045 5.80505 6.09376 5.88313C5.7797 6.18698 5.47761 6.50751 5.11558 6.91452C5.00769 7.03443 4.91662 7.13199 4.91184 7.13199C4.90702 7.13199 4.90467 7.11523 4.90702 7.09294C4.96216 6.6246 4.9502 6.02249 4.87348 5.412C4.86626 5.33392 4.85909 5.26705 4.86149 5.26427ZM11.8642 5.27265C11.869 5.27819 11.7108 5.56811 11.6101 5.73256C11.4663 5.97229 11.2553 6.29014 10.7782 6.98704C10.5265 7.35497 10.2436 7.77036 10.1501 7.90973C10.0542 8.0491 9.97509 8.16616 9.97266 8.16616C9.97027 8.16616 9.93915 8.11601 9.90557 8.0547C9.63705 7.58636 9.31578 7.17657 8.93459 6.80861C8.86268 6.7389 8.7836 6.66364 8.75723 6.64133C8.73085 6.61904 8.70926 6.59674 8.70926 6.59396C8.70926 6.58562 9.11677 6.38208 9.42609 6.23715C9.96791 5.98067 10.7062 5.67405 11.2601 5.47611C11.5502 5.3702 11.8594 5.26705 11.8642 5.27265ZM12.0488 5.32837C12.0584 5.3256 12.116 5.35905 12.1855 5.4064C12.7681 5.79388 13.3386 6.29289 13.7893 6.80582C13.9164 6.9508 14.2304 7.32991 14.2256 7.33269C14.2256 7.33269 14.1154 7.34384 13.9859 7.35497C12.9766 7.44421 11.6845 7.69227 10.4426 8.04071C10.3587 8.06299 10.2844 8.08251 10.2796 8.08251C10.2748 8.08251 10.3683 7.97381 10.4858 7.84281C11.2146 7.02604 11.5478 6.51033 11.941 5.59039C11.9961 5.45383 12.044 5.33675 12.0488 5.32837C12.0464 5.32837 12.0464 5.32837 12.0488 5.32837ZM6.70985 5.96399C6.74343 5.9723 7.05509 6.14241 7.29003 6.27897C7.50579 6.40437 7.82946 6.60512 7.84623 6.62182C7.84862 6.6246 7.73352 6.69429 7.59213 6.77515C7.14139 7.03718 6.75543 7.28526 6.35264 7.56961C6.23758 7.65046 6.14168 7.7174 6.1393 7.7174C6.1297 7.7174 6.13209 7.70619 6.19683 7.56961C6.4126 7.11247 6.58519 6.56609 6.68351 6.03363C6.69307 5.99183 6.70267 5.96399 6.70985 5.96399ZM6.39818 6.03086C6.40539 6.03924 6.32388 6.38209 6.27355 6.56887C6.17523 6.9229 6.00982 7.36613 5.84922 7.70065C5.81081 7.77866 5.75329 7.89297 5.72213 7.95708L5.66221 8.06858L5.52795 7.91809C5.37214 7.74245 5.24505 7.63374 5.08206 7.53614C5.01729 7.49716 4.96697 7.46367 4.96697 7.45813C4.96697 7.43583 5.37692 7.00375 5.69097 6.69153C5.91631 6.46572 6.391 6.0225 6.39818 6.03086ZM8.30415 6.94243L8.42163 7.03161C8.69007 7.23514 9.00652 7.50551 9.24871 7.74245C9.38532 7.87344 9.64902 8.14946 9.70181 8.21636L9.73053 8.25263L9.53639 8.31673C8.43837 8.67072 7.5897 8.98573 6.59957 9.40948C6.4893 9.45685 6.39579 9.49588 6.38858 9.49588C6.37424 9.49588 6.36222 9.5098 6.60918 9.24496C7.2421 8.56763 7.80306 7.82049 8.22022 7.09292L8.30415 6.94243ZM7.80308 7.08738C7.80786 7.09294 7.47943 7.63094 7.28282 7.9348C7.04788 8.2972 6.63073 8.90489 6.34305 9.3007C6.22321 9.4652 6.12014 9.60179 6.11532 9.60459C6.10811 9.60737 6.10572 9.56556 6.10572 9.50144C6.10572 9.16411 6.03142 8.8045 5.90194 8.49789C5.8468 8.36966 5.8372 8.33899 5.84923 8.32507C5.89477 8.27766 6.5924 7.81491 7.0335 7.53896C7.33078 7.35498 7.79583 7.0818 7.80308 7.08738ZM4.77276 7.95155C4.77997 7.95155 4.83511 7.98497 4.89745 8.02402C5.05088 8.12158 5.18753 8.23029 5.30979 8.3474C5.31456 8.35295 5.25226 8.41152 5.17075 8.48117C4.94299 8.67072 4.59777 8.9746 4.39643 9.16138C4.1854 9.35652 4.17826 9.36208 4.20221 9.32028C4.36045 9.03872 4.43953 8.87982 4.52347 8.67634C4.59777 8.49517 4.67208 8.2805 4.72482 8.09372C4.74399 8.01288 4.76798 7.95155 4.77276 7.95155ZM5.58071 8.68746C5.59266 8.68471 5.60709 8.70977 5.67178 8.82129C5.80844 9.0582 5.91393 9.37603 5.94034 9.63248L5.94508 9.68826L5.61668 9.83601C5.02928 10.1008 4.48751 10.3629 4.12066 10.558C4.01761 10.6137 3.83779 10.7141 3.72034 10.781C3.60286 10.8507 3.50696 10.9036 3.50696 10.9009C3.50696 10.8981 3.58127 10.834 3.67236 10.7559C4.38923 10.151 5.01013 9.48752 5.47521 8.82408C5.52557 8.75437 5.57113 8.69025 5.57589 8.68747L5.58071 8.68746ZM5.20912 8.79341C5.21871 8.80456 4.94542 9.16414 4.75842 9.38436C4.29572 9.93356 3.83782 10.3629 3.26962 10.781C3.19771 10.834 3.13299 10.8813 3.12578 10.8869C3.10899 10.8981 3.13056 10.8702 3.3799 10.5552C3.53814 10.3573 3.65799 10.19 3.79464 9.98376C3.88574 9.84719 3.90253 9.82766 4.03441 9.71889C4.38683 9.4234 5.19952 8.78224 5.20912 8.79341Z" fill="url(#paint2_radial_5_36)"/>
<defs>
<linearGradient id="paint0_linear_5_36" x1="2.38623" y1="16.5948" x2="3.616" y2="15.9698" gradientUnits="userSpaceOnUse">
<stop stop-color="#909CA9"/>
<stop offset="1" stop-color="#EDEDEE"/>
</linearGradient>
<linearGradient id="paint1_linear_5_36" x1="2.41075" y1="1.73837" x2="3.33358" y2="1.73837" gradientUnits="userSpaceOnUse">
<stop stop-color="#939FAB"/>
<stop offset="1" stop-color="#DCDEE1"/>
</linearGradient>
<radialGradient id="paint2_radial_5_36" cx="0" cy="0" r="1" gradientUnits="userSpaceOnUse" gradientTransform="translate(7.06917 6.66073) rotate(-170.093) scale(1.19439 2.7569)">
<stop stop-color="#EE352C"/>
<stop offset="1" stop-color="#A91D22"/>
</radialGradient>
</defs>
</svg>
