<svg width="267" height="232" viewBox="0 0 267 232" fill="none" xmlns="http://www.w3.org/2000/svg">
<path fill-rule="evenodd" clip-rule="evenodd" d="M66.5625 0C65.3856 0 64.2569 0.381919 63.4247 1.06174C62.5925 1.74156 62.125 2.66359 62.125 3.625V14.5H4.4375C3.2606 14.5 2.13191 14.8819 1.29971 15.5617C0.467521 16.2416 0 17.1636 0 18.125C0 52.9467 14.8745 79.0758 34.577 97.353C54.102 115.456 78.1533 125.918 97.483 130.246C99.2403 131.863 101.033 133.422 102.914 134.806C106.908 137.743 111.275 140.048 115.863 141.767C116.012 142.139 116.234 142.489 116.52 142.803C116.52 142.803 117.789 144.195 119.005 146.073C120.203 147.958 120.966 150.307 120.851 151.017C120.602 152.54 118.375 154.744 115.686 156.368C112.996 157.999 110.414 158.949 110.414 158.949C109.831 159.168 109.313 159.487 108.896 159.884C108.674 160.029 108.24 160.029 108.08 160.174C107.396 160.8 106.882 161.536 106.571 162.335C106.043 163.619 105.791 164.968 105.825 166.322C105.825 167.656 105.985 168.961 106.571 170.317C106.722 170.665 107.103 171.057 107.352 171.426C107.245 179.967 106.021 183.795 103.811 186.477C101.548 189.225 97.2079 191.639 90.5516 196.446C90.4757 196.495 90.4017 196.546 90.3298 196.598L90.241 196.671C89.941 196.887 89.6783 197.136 89.46 197.41C89.4165 197.47 89.375 197.53 89.3357 197.591C89.3022 197.632 89.2696 197.673 89.2381 197.715C89.2197 197.748 89.202 197.782 89.1849 197.816C88.9982 198.135 88.8696 198.475 88.8032 198.824C88.8028 198.853 88.8028 198.882 88.8032 198.911C88.7733 199.065 88.7555 199.22 88.75 199.375V210.25H85.626C84.1048 210.269 82.6527 210.772 81.5786 211.652C80.5046 212.532 79.8933 213.72 79.875 214.962V227.302C79.875 229.839 82.5375 232 85.626 232H180.624C182.144 231.985 183.596 231.485 184.67 230.607C185.745 229.73 186.357 228.543 186.375 227.302V214.962C186.375 212.425 183.712 210.25 180.624 210.25H177.74V199.375C177.742 198.682 177.5 198.002 177.044 197.418C176.588 196.833 175.936 196.367 175.166 196.076C168.865 191.574 164.631 189.131 162.439 186.477C160.22 183.795 159.004 179.967 158.898 171.412C159.146 171.042 159.528 170.65 159.679 170.302C160.203 169.018 160.449 167.669 160.407 166.315C160.407 164.974 160.256 163.661 159.661 162.306C159.341 161.513 158.821 160.785 158.135 160.167C157.52 159.661 156.783 159.265 155.969 159.007C155.969 159.007 153.218 157.862 150.422 156.114C147.636 154.374 145.47 151.967 145.364 151.09C145.266 150.293 146.083 147.922 147.29 146.051C148.016 144.914 148.838 143.819 149.748 142.774C150.023 142.47 150.239 142.132 150.387 141.774C155.113 140 159.481 137.651 163.344 134.806C165.217 133.422 167.01 131.863 168.758 130.239C188.088 125.918 212.157 115.449 231.673 97.353C251.376 79.0758 266.25 52.9467 266.25 18.125C266.25 17.1636 265.782 16.2416 264.95 15.5617C264.118 14.8819 262.989 14.5 261.812 14.5H204.125V3.625C204.125 2.66359 203.657 1.74156 202.825 1.06174C201.993 0.381919 200.864 0 199.688 0L66.5625 0ZM71 7.25H195.25V21.199H71V7.25ZM9.25662 21.75H62.125V24.824C62.1238 24.9426 62.1297 25.0611 62.1427 25.1793C62.1427 26.4625 62.2049 27.7167 62.2315 29H24.85C23.6731 29 22.5444 29.3819 21.7122 30.0617C20.88 30.7416 20.4125 31.6636 20.4125 32.625C20.4125 53.6645 32.0565 71.804 45.7063 85.6225C59.1785 99.2888 74.5056 108.772 83.6824 113.151C85.1734 115.558 86.7354 117.827 88.3773 120.009C70.299 113.919 54.1688 104.527 41.2244 92.5535C23.5454 76.1395 10.295 52.925 9.25662 21.75ZM204.125 21.75H256.993C255.964 52.9323 242.705 76.1395 225.017 92.5535C212.072 104.527 195.942 113.919 177.864 120.009C179.497 117.834 181.059 115.551 182.541 113.151C191.718 108.779 207.054 99.2887 220.544 85.6297C234.185 71.804 245.838 53.65 245.838 32.625C245.838 31.6636 245.37 30.7416 244.538 30.0617C243.706 29.3819 242.577 29 241.4 29H204.019C204.045 27.6007 204.125 26.2305 204.125 24.824V21.75ZM71.3816 28.449H194.868C194.354 58.319 188.15 85.7747 177.322 105.466C171.687 115.732 164.898 123.91 157.407 129.413C149.925 134.908 141.911 137.75 133.125 137.75C124.339 137.75 116.325 134.908 108.843 129.413C101.352 123.91 94.5542 115.732 88.9097 105.466C78.0822 85.7675 71.8875 58.3262 71.3816 28.449ZM30.2283 36.25H62.4179C63.6249 60.2475 68.6126 82.3383 76.7954 100.326C67.8678 94.6856 59.7595 88.2298 52.6287 81.084C40.6919 68.991 31.5418 53.505 30.2283 36.25ZM203.823 36.25H236.022C234.708 53.505 225.549 68.991 213.621 81.084C205.634 89.1678 196.91 95.5768 189.428 100.34C197.611 82.3528 202.616 60.2548 203.823 36.25ZM127.667 145.399C131.164 145.805 135.069 145.805 138.565 145.399C137.527 147.356 136.222 149.241 136.542 151.808C137.137 156.665 141.485 159.645 145.035 161.864C148.266 163.886 150.831 164.923 151.363 165.148C151.443 165.459 151.541 165.807 151.541 166.322C151.541 166.511 151.496 166.569 151.479 166.75H114.772C114.754 166.569 114.7 166.511 114.7 166.322C114.7 165.815 114.789 165.474 114.878 165.162C115.561 164.901 117.851 164.096 120.975 162.204C124.525 160.051 128.83 156.883 129.637 151.996C130.081 149.343 128.732 147.4 127.667 145.399ZM115.34 174H150.91C151.354 180.996 152.055 186.891 155.073 190.537C156.724 192.546 159.661 194.177 161.845 195.75H104.405C106.589 194.177 109.526 192.546 111.177 190.537C114.195 186.891 114.896 180.996 115.34 174ZM97.625 203H168.865V210.25H97.625V203ZM88.75 217.5H177.5V224.75H88.75V217.5Z" fill="url(#paint0_linear_24_15)"/>
<defs>
<linearGradient id="paint0_linear_24_15" x1="0" y1="116" x2="248.5" y2="116" gradientUnits="userSpaceOnUse">
<stop stop-color="#000092"/>
<stop offset="1" stop-color="#FF00F3"/>
</linearGradient>
</defs>
</svg>
