<svg width="78" height="73" viewBox="0 0 78 73" fill="none" xmlns="http://www.w3.org/2000/svg">
<path d="M67.4615 34.8505C67.6089 33.5352 67.6986 32.2069 67.7298 30.8741C67.7424 24.052 66.24 17.4169 63.4587 12.0106C60.6774 6.60423 56.7745 2.73293 52.363 1.00453C47.9516 -0.723861 43.2813 -0.211452 39.0856 2.4613C34.8899 5.13405 31.4063 9.81576 29.182 15.7713C27.8539 15.0115 26.4507 14.5873 25.0296 14.5158C23.3099 14.5152 21.6069 15.0214 20.0179 16.0055C18.429 16.9896 16.9852 18.4324 15.769 20.2513C14.5528 22.0703 13.5881 24.2299 12.9299 26.6067C12.2716 28.9835 11.9329 31.531 11.9329 34.1037C11.9329 34.2157 11.9734 34.3091 11.9765 34.4164C8.63372 34.7799 5.51636 37.0736 3.28334 40.8127C1.05031 44.5518 -0.123398 49.4433 0.0102854 54.4533C0.143969 59.4633 1.57457 64.1993 3.99971 67.6602C6.42486 71.1211 9.65451 73.0357 13.0061 72.9995H65C68.4478 72.9995 71.7544 70.9505 74.1924 67.3033C76.6304 63.6562 78 58.7095 78 53.5516C77.9735 49.0865 76.9063 44.7753 74.9824 41.3613C73.0586 37.9473 70.3987 35.6447 67.4615 34.8505Z" fill="url(#paint0_linear_6_25)"/>
<defs>
<linearGradient id="paint0_linear_6_25" x1="39" y1="0" x2="39" y2="73" gradientUnits="userSpaceOnUse">
<stop stop-color="#8D6DCC"/>
<stop offset="1" stop-color="#4B28D5"/>
</linearGradient>
</defs>
</svg>
