<svg width="15" height="18" viewBox="0 0 15 18" fill="none" xmlns="http://www.w3.org/2000/svg">
<path d="M0 0V18H4.52833V11.0001C5.66044 11.0001 6.33476 10.7031 7.07545 12.3334C8.20756 14.6667 9.62267 18 9.62267 18H15C15 18 11.6038 11.3334 11.3208 11.0001C10.7988 10.3333 10.1887 10.3333 9.33967 10C11.0378 9.6667 12.6209 8.82033 13.1713 7.00692C13.6524 5.34034 13.5958 3.22028 12.5645 1.79861C11.6713 0.67365 10.7548 0 8.49056 0H0ZM4.52833 3.74876H7.5C8.20469 3.74876 8.77356 4.58212 8.77356 5.41535C8.77356 6.2487 8.20756 7.08206 7.5 7.08206H4.52833V3.74876Z" fill="#2165B6"/>
</svg>
