<svg width="27" height="9" viewBox="0 0 27 9" fill="none" xmlns="http://www.w3.org/2000/svg">
<path d="M4.85398 2.45713C4.81241 2.45713 4.77082 2.46194 4.72961 2.46194C3.88986 2.51628 3.32348 2.96502 2.99233 3.84134C2.70911 4.63389 2.74003 5.66988 2.99551 6.46729C3.2926 7.24645 3.77265 7.65766 4.57394 7.81298C4.74348 7.84669 4.85716 7.95971 5.18552 8.42524L5.58955 9H6.32232L5.83507 8.40357C5.56573 8.07655 5.34788 7.7918 5.34788 7.76678C5.34788 7.74178 5.45091 7.68696 5.57563 7.64081C5.98679 7.48972 6.32822 7.10404 6.56706 6.51293C6.76036 6.03827 6.78811 5.89153 6.81582 5.30096C6.88831 3.54308 6.12502 2.44406 4.85394 2.45662L4.85398 2.45713ZM5.49643 7.05409C5.13995 7.26374 4.6223 7.3056 4.28441 7.15507C3.93505 6.99927 3.59679 6.55871 3.44466 6.05996C3.27554 5.51456 3.29968 4.50843 3.49299 4.05532C3.80392 3.33389 4.21509 3.00205 4.81595 3.00205C5.70716 3.00205 6.21415 3.66484 6.28031 4.91048C6.3326 5.95033 6.04582 6.73042 5.49682 7.05365L5.49643 7.05409ZM18.1548 3.95866C17.8475 3.95866 17.6122 4.10972 17.4537 4.40736L17.3293 4.64305V4.0303H16.7974V7.70481H17.329V6.53032C17.329 5.45634 17.34 5.33081 17.4636 5.03692C17.634 4.63389 17.927 4.43291 18.2103 4.5291L18.4004 4.59643V3.95964H18.1548V3.95866ZM15.0297 3.92497C14.9255 3.92497 14.8149 3.94183 14.7049 3.97119C13.9931 4.1972 13.5918 5.02443 13.6164 5.87574C13.6164 6.58854 13.7304 6.94488 14.0137 7.31861C14.594 7.8967 15.1188 7.94285 15.827 7.63269C15.9478 7.57016 16.0793 7.49802 16.0793 7.49802V6.91993L15.827 7.07864C15.2538 7.38163 14.8221 7.38162 14.4763 7.02475C14.2557 6.75204 14.1586 6.42499 14.1139 6.05182H16.2587V5.55637C16.2587 4.54638 15.7581 3.90863 15.0292 3.92497H15.0297ZM14.1622 5.53619C14.1622 5.53619 14.2414 4.90616 14.5353 4.65893C14.6768 4.5377 14.8391 4.47906 14.9979 4.47906C15.1572 4.47906 15.316 4.54156 15.4471 4.66328C15.7165 4.91481 15.7616 5.53142 15.7616 5.53142H14.1622V5.53619H14.1622ZM1.33783 4.87347C0.761135 4.44923 0.505255 4.14332 0.536544 3.78261C0.626044 2.78464 1.64166 2.92268 2.20409 3.30025L2.20809 2.62885C2.20809 2.62885 1.89714 2.46533 1.45151 2.45666C0.767857 2.44415 0.325815 2.71635 0.118685 3.27042C-0.185544 4.08803 0.0838348 4.7046 1.05746 5.3924C1.60405 5.77858 1.84565 6.11383 1.84565 6.47933C1.84565 7.23445 1.09585 7.49802 0.32229 7.02426C0.163089 6.92807 0.0283992 6.84774 0.0212757 6.84774C-0.00646953 7.06179 0.00783231 7.57398 0.00783231 7.57398C0.00783231 7.57398 0.245502 7.69521 0.601952 7.77882C1.486 7.99285 2.2905 7.4893 2.36654 6.67169C2.4327 5.90411 2.2041 5.50152 1.33787 4.87291L1.33783 4.87347ZM22.8628 3.91635C22.759 3.91635 22.6489 3.93365 22.534 3.96299C21.8231 4.18903 21.4226 5.0163 21.4499 5.8676C21.4499 6.57942 21.5636 6.93242 21.8468 7.30562C22.4271 7.88424 22.9519 7.93086 23.6637 7.6202C23.7841 7.5577 23.9152 7.48655 23.9152 7.48655V6.90749L23.6633 7.06711C23.089 7.36916 22.6572 7.36916 22.3126 7.01231C22.0908 6.74009 21.9946 6.41688 21.9498 6.03931H24.0911V5.54393C24.0911 4.53877 23.5904 3.90051 22.8616 3.91737L22.8628 3.91635ZM21.9953 5.52754C21.9953 5.52754 22.0754 4.89844 22.3689 4.6464C22.5099 4.52475 22.6723 4.46604 22.8311 4.46604C22.9895 4.46604 23.1492 4.52857 23.2803 4.65073C23.5497 4.90228 23.5948 5.52319 23.5948 5.52319H21.9958L21.9953 5.52754ZM12.2451 4.88163C11.6684 4.45839 11.4133 4.15151 11.4442 3.79077C11.5337 2.79229 12.5493 2.93084 13.1117 3.30841L13.1157 2.63702C13.1157 2.63702 12.8048 2.47347 12.3592 2.46575C11.6755 2.45327 11.2335 2.72549 11.0259 3.27953C10.7221 4.09712 10.995 4.71373 11.9655 5.40152C12.5113 5.78727 12.7529 6.11815 12.7529 6.48366C12.7529 7.23877 12.0035 7.50667 11.2299 7.02856C11.0715 6.93237 10.9368 6.853 10.9289 6.853C10.9012 7.067 10.9155 7.57926 10.9155 7.57926C10.9155 7.57926 11.1503 7.69614 11.5056 7.78412C12.3905 7.99863 13.1953 7.49553 13.271 6.67792C13.3368 5.91415 13.1086 5.51161 12.2451 4.88251V4.88163H12.2451ZM25.9884 3.95001C25.681 3.95001 25.443 4.10147 25.2873 4.39922L25.1629 4.63391V4.02216H24.631V7.69568H25.1625V6.52123C25.1625 5.44771 25.1732 5.3217 25.2972 5.02832C25.4675 4.62578 25.7606 4.42428 26.0438 4.52091L26.2339 4.58823V3.95004L25.9884 3.95001ZM8.01481 4.86045V2.52009H7.47852V7.70386H9.7339V7.09164H8.01483V4.86045H8.01481ZM20.4173 5.59003L19.9753 6.98673L19.5502 5.58234L19.1185 4.026H18.5695C18.9253 5.25053 19.3122 6.49616 19.7024 7.70386C19.8715 7.70865 20.041 7.70386 20.2101 7.70386L20.8071 5.88392L21.4151 4.02646H20.8903C20.8903 4.02646 20.6585 4.76426 20.4169 5.59052L20.4173 5.59003ZM9.25062 1.10753C9.33698 1.10753 9.40905 1.07391 9.46847 1.00176C9.52707 0.930548 9.55797 0.846868 9.55797 0.74203C9.55797 0.637169 9.52707 0.54963 9.46847 0.482296C9.40905 0.414984 9.34052 0.381272 9.25456 0.381272C9.16746 0.381272 9.09534 0.414983 9.03671 0.486132C8.97731 0.557348 8.95037 0.644888 8.95037 0.745889C8.95037 0.851703 8.97812 0.939198 9.03671 1.00562C9.09218 1.07291 9.16428 1.1066 9.25062 1.1066V1.10753ZM9.06051 0.511173C9.11198 0.448673 9.17458 0.419775 9.25458 0.419775C9.32985 0.419775 9.39245 0.448673 9.44474 0.511173C9.49623 0.573694 9.52396 0.649678 9.52396 0.74203C9.52396 0.83436 9.49623 0.914225 9.44474 0.976725C9.39247 1.0392 9.32985 1.06905 9.25458 1.06905C9.17814 1.06905 9.11595 1.0402 9.06447 0.976725C9.01298 0.914225 8.98526 0.83436 8.98526 0.74203C8.98526 0.649678 9.00902 0.573716 9.06051 0.511173ZM9.18842 0.775719H9.22327C9.24786 0.775719 9.27201 0.804551 9.29259 0.859399L9.33422 0.972866H9.39955L9.34808 0.846823C9.32709 0.796367 9.30651 0.767025 9.28233 0.758797C9.31283 0.750147 9.33698 0.737661 9.35442 0.712621C9.37181 0.691019 9.37817 0.661655 9.37817 0.628454C9.37817 0.589996 9.36827 0.561163 9.3473 0.539983C9.32351 0.515941 9.28549 0.502967 9.23635 0.502967H9.12629V0.972866H9.18172V0.775675L9.18842 0.775719ZM9.18842 0.557348H9.23677C9.27162 0.557348 9.29619 0.565998 9.30965 0.578484C9.32273 0.590993 9.32629 0.607384 9.32629 0.63717C9.32629 0.691508 9.29853 0.717034 9.24707 0.717034H9.18768V0.557348H9.18842ZM0.329359 0.733846C0.329359 0.570322 0.325413 0.448673 0.322235 0.376992H0.325413C0.339259 0.461581 0.3563 0.524635 0.370164 0.566463L0.885066 1.96316H0.971425L1.48633 0.553977C1.50023 0.515542 1.51409 0.457789 1.53111 0.377458H1.53506C1.52478 0.516961 1.52121 0.638145 1.52121 0.7348V1.96751H1.69744V0.135067H1.47643L1.00312 1.40958C0.985672 1.46006 0.961507 1.53563 0.93062 1.63565H0.92346C0.913177 1.5861 0.889012 1.51059 0.854563 1.41823L0.3919 0.130697H0.157043V1.96312H0.326564V0.734755L0.329359 0.733846ZM2.08366 0.737262H2.2358V1.87853H2.08366V0.737262ZM2.15972 0.318795C2.19143 0.318795 2.21835 0.305776 2.23894 0.280337C2.25994 0.255297 2.27382 0.222606 2.27382 0.184149C2.27382 0.146622 2.2635 0.112934 2.23936 0.0879605C2.21797 0.0624551 2.19062 0.0494363 2.15934 0.0494363C2.12847 0.0494363 2.10074 0.0624551 2.0801 0.0879605C2.05917 0.112934 2.04527 0.146622 2.04527 0.184149C2.04527 0.226 2.05597 0.255297 2.0801 0.280337C2.10392 0.305776 2.12845 0.318795 2.15934 0.318795H2.15972ZM3.32031 1.90357V1.7025C3.23711 1.77802 3.14759 1.81556 3.05491 1.81556C2.94404 1.81556 2.85408 1.76941 2.78832 1.68094C2.72299 1.5934 2.68814 1.47166 2.68814 1.32018C2.68814 1.16147 2.72299 1.03541 2.79506 0.93922C2.86438 0.84689 2.95432 0.800714 3.06444 0.800714C3.15435 0.800714 3.24065 0.834426 3.32032 0.901783V0.687758C3.24785 0.641582 3.16507 0.620402 3.07157 0.620402C2.89885 0.620402 2.76421 0.68776 2.66361 0.81766C2.56377 0.947493 2.51228 1.12401 2.51228 1.33708C2.51228 1.52656 2.55703 1.68578 2.65015 1.80747C2.74717 1.93249 2.87119 1.99599 3.02327 1.99599C3.14087 1.99204 3.23711 1.96221 3.32031 1.90357ZM3.75559 1.29514C3.75559 1.14459 3.78332 1.02294 3.83481 0.939198C3.88315 0.863724 3.94175 0.825732 4.01107 0.825732C4.0697 0.825732 4.11127 0.838707 4.14176 0.868049V0.649678C4.11801 0.637191 4.08355 0.632867 4.03879 0.632867C3.9766 0.632867 3.92118 0.658283 3.87245 0.705014C3.82096 0.754494 3.77977 0.830058 3.75561 0.926246H3.75166V0.658328H3.57936V1.96653H3.75205V1.29514H3.75559ZM4.74702 1.99251C4.90944 1.99251 5.04014 1.92901 5.13717 1.80303C5.23379 1.67792 5.28212 1.50963 5.28212 1.29989C5.28212 1.08593 5.23779 0.922387 5.14747 0.800648C5.05797 0.679043 4.93356 0.620291 4.77115 0.620291C4.60873 0.620291 4.47802 0.678999 4.381 0.792487C4.27723 0.917596 4.22256 1.09409 4.22256 1.32063C4.22256 1.51782 4.26693 1.68136 4.36043 1.80303C4.45705 1.92901 4.585 1.99202 4.74702 1.99202V1.99251ZM4.50144 0.926712C4.5672 0.842544 4.65357 0.80067 4.76048 0.80067C4.87142 0.80067 4.95459 0.842544 5.01638 0.926712C5.07855 1.01474 5.10948 1.14029 5.10948 1.30812C5.10948 1.46776 5.08173 1.59331 5.0231 1.67748C4.96451 1.76551 4.87815 1.81213 4.76404 1.81213C4.65315 1.81213 4.5672 1.76546 4.50144 1.67748C4.4361 1.58899 4.4048 1.46776 4.4048 1.30812C4.39808 1.14941 4.43254 1.01957 4.50144 0.926712ZM6.03831 1.87853C6.10405 1.80738 6.13894 1.71984 6.13894 1.61012C6.13894 1.51393 6.11117 1.43411 6.0597 1.3711C6.01769 1.32065 5.95278 1.27492 5.85889 1.22874C5.77567 1.18647 5.7242 1.1489 5.69646 1.11956C5.66875 1.08591 5.65171 1.0441 5.65171 0.984908C5.65171 0.93057 5.66915 0.88872 5.70323 0.855052C5.73808 0.82143 5.78245 0.805084 5.84187 0.805084C5.93495 0.805084 6.01455 0.83487 6.08741 0.897902V0.688181C6.01771 0.645908 5.94205 0.625703 5.85569 0.625703C5.7448 0.625703 5.65132 0.662763 5.58237 0.734356C5.50987 0.805594 5.47544 0.897923 5.47544 1.00658C5.47544 1.10276 5.49919 1.18263 5.54432 1.24127C5.58235 1.29131 5.64736 1.34232 5.73763 1.38796C5.824 1.43416 5.88262 1.47597 5.91389 1.50961C5.94477 1.54332 5.95864 1.58513 5.95864 1.63472C5.95864 1.75684 5.88974 1.81989 5.75505 1.81989C5.65127 1.81989 5.55822 1.7785 5.47499 1.69485V1.92082C5.55026 1.97572 5.64058 2.00069 5.74038 2.00069C5.86833 1.99253 5.96852 1.95454 6.03745 1.87902L6.03831 1.87853ZM6.8606 0.620336C6.69817 0.620336 6.56748 0.679042 6.47044 0.79253C6.36746 0.91764 6.312 1.09414 6.312 1.32067C6.312 1.51786 6.35679 1.68141 6.44985 1.80308C6.5469 1.92905 6.67442 1.99206 6.83684 1.99206C7.00318 1.99206 7.12996 1.92861 7.22699 1.80255C7.32403 1.67752 7.37235 1.50919 7.37235 1.29947C7.37235 1.08544 7.32719 0.921943 7.23766 0.800249C7.14423 0.678555 7.01981 0.61987 6.86137 0.61987L6.8606 0.620336ZM7.19568 1.30814C7.19568 1.46778 7.16796 1.59333 7.10934 1.6775C7.05071 1.76553 6.96435 1.81215 6.85027 1.81215C6.73932 1.81215 6.6534 1.76549 6.58763 1.6775C6.52229 1.58901 6.491 1.46778 6.491 1.30814C6.491 1.1398 6.52549 1.00997 6.5948 0.922387C6.66012 0.838707 6.74652 0.796368 6.85385 0.796368C6.96077 0.796368 7.04675 0.838663 7.1089 0.922387C7.16438 1.01472 7.19528 1.14027 7.19528 1.30814H7.19568ZM7.66231 1.9627H7.83461V0.83008H8.08691V0.654025H7.83459V0.452022C7.83459 0.268339 7.89319 0.175987 8.01441 0.175987C8.05522 0.175987 8.09681 0.188474 8.12771 0.209655V0.0206693C8.09681 0.0038357 8.05522 0 8.00329 0C7.91023 0 7.83419 0.0336891 7.77198 0.104838C7.69948 0.188518 7.66109 0.297216 7.66109 0.444438V0.658949H7.47883V0.834958H7.66109V1.96332L7.66231 1.9627ZM8.3701 1.60582C8.3701 1.86172 8.46321 1.99204 8.65332 1.99204C8.72225 1.99204 8.77413 1.9786 8.81572 1.94877V1.7689C8.78405 1.79778 8.7464 1.81126 8.70483 1.81126C8.64623 1.81126 8.60503 1.79436 8.58084 1.75637C8.55628 1.71891 8.54243 1.65537 8.54243 1.56783V0.829591H8.8157V0.653537H8.54243V0.267851C8.48301 0.292846 8.4248 0.314026 8.36971 0.33514V0.653516H8.18355V0.829569H8.36971V1.60536L8.3701 1.60582ZM26.9073 4.0173C26.8487 3.95001 26.7794 3.91633 26.6934 3.91633C26.6063 3.91633 26.5342 3.95001 26.4756 4.02214C26.417 4.09284 26.3892 4.18083 26.3892 4.28187C26.3892 4.38673 26.417 4.47427 26.4751 4.54156C26.5338 4.6089 26.6058 4.64261 26.693 4.64261C26.779 4.64261 26.8514 4.6089 26.9109 4.53773C26.9691 4.46558 27 4.38239 27 4.27804C26.9968 4.17222 26.9655 4.08466 26.9069 4.01735L26.9073 4.0173ZM26.8796 4.51273C26.8281 4.57523 26.7655 4.60408 26.6895 4.60408C26.6142 4.60408 26.5517 4.57523 26.4994 4.51273C26.4479 4.44923 26.4201 4.36988 26.4201 4.27704C26.4201 4.18564 26.4439 4.1097 26.4962 4.0462C26.5477 3.98372 26.6099 3.9548 26.6895 3.9548C26.7647 3.9548 26.8274 3.98372 26.8796 4.0462C26.9311 4.1097 26.9588 4.18564 26.9588 4.27704C26.9588 4.37422 26.935 4.44923 26.8796 4.51273ZM26.7243 4.29868C26.7552 4.29003 26.7798 4.2732 26.7968 4.25253C26.8143 4.23086 26.8206 4.2015 26.8206 4.16792C26.8206 4.13039 26.8107 4.10056 26.7897 4.07989C26.766 4.05583 26.7276 4.04283 26.6789 4.04283H26.5687V4.51222H26.6242V4.31503H26.6586C26.6824 4.31503 26.7062 4.34386 26.7276 4.39871L26.7687 4.51173H26.8345L26.783 4.38569C26.7652 4.33087 26.7446 4.30583 26.7236 4.29764L26.7243 4.29868ZM26.6863 4.25639H26.6269V4.0977H26.6756C26.7101 4.0977 26.7342 4.10535 26.7481 4.11837C26.762 4.13086 26.7651 4.14723 26.7651 4.17706C26.7651 4.23139 26.7374 4.25643 26.6859 4.25643L26.6863 4.25639ZM17.0497 0.599688H17.0981V0.129789H17.226V0.0711046H16.9218V0.129789H17.0498V0.599688H17.0497ZM17.3428 0.24667C17.3428 0.200937 17.3428 0.163434 17.3401 0.14232C17.3432 0.167293 17.3504 0.184171 17.3535 0.196658L17.5021 0.599688H17.5259L17.6748 0.192776C17.6788 0.180289 17.6819 0.163922 17.6886 0.14232C17.6855 0.184171 17.6855 0.217749 17.6855 0.243299V0.599221H17.737V0.0711046H17.6748L17.5401 0.435677C17.537 0.448696 17.5262 0.474134 17.5195 0.503033H17.5155C17.5128 0.486155 17.5057 0.469344 17.4957 0.440534L17.3611 0.0711479H17.2914V0.600197H17.3401V0.24718L17.3428 0.24667Z" fill="#D8BEBE"/>
</svg>
